<svg id="Layer_1" data-name="Layer 1" xmlns="http://www.w3.org/2000/svg" viewBox="0 0 80 80"><defs><style>.cls-1{fill:#2e3345;}.cls-2{fill:#25d366;}.cls-3{fill:#fff;}</style></defs><title>Whatsapp Icon</title><circle class="cls-1" cx="40" cy="40" r="40"/><path class="cls-2" d="M40.75,19.28A20,20,0,0,0,23.52,49.34l-2.8,9.94L31,56.64a20,20,0,1,0,9.77-37.36Z"/><path class="cls-3" d="M35.14,29.94l-1.3-.07a1.58,1.58,0,0,0-1.11.38,5.86,5.86,0,0,0-1.94,3c-.46,2.05.25,4.56,2.09,7.07a21.1,21.1,0,0,0,11.33,8.23,5.53,5.53,0,0,0,4.68-.58,4.16,4.16,0,0,0,1.82-2.65l.21-1a.66.66,0,0,0-.38-.75l-4.38-2a.68.68,0,0,0-.81.2L43.63,44a.49.49,0,0,1-.55.17,13.53,13.53,0,0,1-7.29-6.23.52.52,0,0,1,.06-.56l1.65-1.9a.68.68,0,0,0,.11-.7l-1.89-4.41a.68.68,0,0,0-.58-.41Zm0,0"/></svg>